<?xml version="1.0" encoding="UTF-8"?>
<svg width="48px" height="48px" viewBox="0 0 48 48" version="1.1" xmlns="http://www.w3.org/2000/svg" xmlns:xlink="http://www.w3.org/1999/xlink">
    <title>阴天</title>
    <g id="阴天" stroke="none" stroke-width="1" fill="none" fill-rule="evenodd">
        <path d="M40,32 C44.4,32 48,28.4 48,24 C48,19.6 44.4,16 40,16 C39.6,16 39.2,16 38.8,16.1 C37.2,11.7 33,8.6 28,8.6 C22,8.6 17.2,13.4 17.2,19.4 C17.2,20 17.3,20.7 17.4,21.3 C17,21.2 16.5,21.2 16,21.2 C11.6,21.2 8,24.8 8,29.2 C8,33.6 11.6,37.2 16,37.2 L40,37.2 L40,32 Z" id="云1" fill="#CCCCCC"></path>
        <path d="M32,40 C34.2,40 36,38.2 36,36 C36,33.8 34.2,32 32,32 C31.8,32 31.6,32 31.4,32.1 C30.6,29.9 28.4,28.3 26,28.3 C23,28.3 20.6,30.7 20.6,33.7 C20.6,34 20.7,34.4 20.7,34.7 C20.5,34.6 20.2,34.6 20,34.6 C17.8,34.6 16,36.4 16,38.6 C16,40.8 17.8,42.6 20,42.6 L32,42.6 L32,40 Z" id="云2" fill="#FFFFFF"></path>
    </g>
</svg> 